<svg viewBox="0,0,412.67338,240.00431" height="240.00431" width="412.67338" xmlns:xlink="http://www.w3.org/1999/xlink" xmlns="http://www.w3.org/2000/svg" version="1.1"><g transform="translate(-33.69684,-59.99784)"><g style="mix-blend-mode: normal" stroke-dashoffset="0" stroke-dasharray="" stroke-miterlimit="10" stroke-linejoin="miter" fill-rule="nonzero" data-paper-data="{&quot;isPaintingLayer&quot;:true}"><g stroke="#6b74a9"><path stroke-linecap="butt" stroke-width="5" fill="#dbdfff" data-paper-data="{&quot;index&quot;:null}" d="M354.29103,213.60904c1.09102,7.48532 2.47739,17.2839 3.01445,30.21621c0.50961,12.27164 6.89774,25.29869 -2.68552,28.6251c-15.59217,5.4121 -20.68445,-12.99341 -20.60154,-23.07897c0.08315,-10.1142 0.6388,-22.38241 3.49737,-31.57981c2.8058,-9.02762 15.28815,-14.38521 16.77523,-4.18249z"></path><path stroke-linecap="round" stroke-width="1.5" fill="none" d="M350.94472,271.37984l-2.12155,-9.91246"></path><path stroke-linecap="round" stroke-width="1.5" fill="none" d="M352.28721,259.61345c0,0 1.722,2.51587 2.05286,4.06181c0.37158,1.73611 1.18328,5.52863 1.18328,5.52863"></path><path stroke-linecap="round" stroke-width="1.5" fill="none" data-paper-data="{&quot;index&quot;:null}" d="M345.22095,270.91282c0,0 -0.7794,-3.7993 -1.13619,-5.53851c-0.31771,-1.54869 0.24921,-4.54427 0.24921,-4.54427"></path></g><g stroke-linecap="butt"><path stroke-width="5" stroke="#6b74a9" fill="#dbdfff" data-paper-data="{&quot;index&quot;:null}" d="M157.00238,231.48154c1.31865,9.99937 -1.47895,28.89029 -17.61699,25.43039c-9.91877,-2.12652 -5.17574,-15.83842 -6.17431,-28.07999c-1.05232,-12.9006 -0.87758,-22.79521 -0.71239,-30.35783c0.22516,-10.30807 13.27012,-6.52103 17.16142,2.09454c0,0 6.01984,20.88515 7.34226,30.91289z"></path><path stroke-width="NaN" stroke="none" fill="#6b74a9" d="M142.33746,250.76785c-0.12968,2.53302 -0.85336,3.40427 -1.6,3.36605c-0.74663,-0.03823 -1.23349,-0.97145 -1.10381,-3.50447c0.12968,-2.53302 0.76828,-3.15297 1.51491,-3.11474c0.74663,0.03823 1.31858,0.72015 1.1889,3.25317z"></path><path stroke-width="NaN" stroke="none" fill="#6b74a9" d="M147.42388,250.61833c-0.12968,2.53302 -0.85336,3.40428 -1.6,3.36605c-0.74664,-0.03823 -1.2335,-0.97146 -1.10381,-3.50448c0.12968,-2.53302 0.76827,-3.15297 1.51491,-3.11474c0.74664,0.03823 1.31858,0.72015 1.1889,3.25317z"></path><path stroke-width="NaN" stroke="none" fill="#6b74a9" d="M137.5607,248.40976c-0.08708,1.70086 -0.57301,2.28589 -1.07436,2.26022c-0.50135,-0.02567 -0.82826,-0.65231 -0.74119,-2.35317c0.08708,-1.70086 0.51588,-2.11715 1.01723,-2.09148c0.50135,0.02567 0.88539,0.48357 0.79832,2.18443z"></path><path stroke-width="NaN" stroke="none" fill="#6b74a9" d="M152.13058,248.1062c-0.08708,1.70086 -0.57301,2.28589 -1.07436,2.26022c-0.50135,-0.02567 -0.82826,-0.65231 -0.74118,-2.35317c0.08708,-1.70086 0.51587,-2.11714 1.01722,-2.09148c0.50135,0.02567 0.8854,0.48357 0.79832,2.18443z"></path><path stroke-width="NaN" stroke="none" fill="#6b74a9" d="M143.93744,246.05875c-5.19592,-0.26601 -6.94058,-2.58117 -6.81529,-5.02847c0.12529,-2.4473 2.07309,-4.09998 7.26901,-3.83397c5.19592,0.26601 6.42961,2.31829 6.30432,4.76559c-0.12529,2.4473 -1.56212,4.36286 -6.75804,4.09685z"></path></g><g stroke="#6b74a9" data-paper-data="{&quot;index&quot;:null}"><path stroke-linecap="butt" stroke-width="5" fill="#dbdfff" data-paper-data="{&quot;index&quot;:null}" d="M120.17288,247.39763c0.7973,-8.60867 13.59264,-4.44848 16.99348,3.05668c3.4648,7.64632 4.84118,17.93406 5.60236,26.42573c0.75901,8.46762 -3.07997,24.06295 -18.97725,19.9415c-9.77079,-2.53314 -4.28004,-13.64683 -4.59534,-23.96642c-0.33227,-10.87516 0.3918,-19.14167 0.97675,-25.4575z"></path><path stroke-linecap="round" stroke-width="1.5" fill="none" d="M128.83013,287.44054l-1.44888,8.38213"></path><path stroke-linecap="round" stroke-width="1.5" fill="none" d="M122.67361,294.1197c0,0 0.55434,-3.20702 0.8081,-4.67509c0.22598,-1.30727 1.77284,-3.46688 1.77284,-3.46688"></path><path stroke-linecap="round" stroke-width="1.5" fill="none" data-paper-data="{&quot;index&quot;:null}" d="M133.25991,286.78333c0,0 0.76572,2.50027 0.55306,3.80951c-0.23882,1.47028 -0.76051,4.68211 -0.76051,4.68211"></path></g><g stroke="#6b74a9"><path stroke-linecap="butt" stroke-width="5" fill="#dbdfff" data-paper-data="{&quot;index&quot;:null}" d="M119.34058,246.82619c0.58495,6.31583 1.30901,14.58233 0.97675,25.45749c-0.3153,10.31959 5.17545,21.43328 -4.59534,23.96642c-15.89728,4.12145 -19.73626,-11.47386 -18.97725,-19.94149c0.76119,-8.49167 2.13756,-18.77942 5.60236,-26.42573c3.40085,-7.50516 16.19618,-11.66535 16.99348,-3.05668z"></path><path stroke-linecap="round" stroke-width="1.5" fill="none" d="M112.13218,295.25125l-1.44888,-8.38214"></path><path stroke-linecap="round" stroke-width="1.5" fill="none" d="M114.25885,285.40629c0,0 1.54686,2.15961 1.77284,3.46688c0.25376,1.46808 0.8081,4.67509 0.8081,4.67509"></path><path stroke-linecap="round" stroke-width="1.5" fill="none" data-paper-data="{&quot;index&quot;:null}" d="M106.461,294.7035c0,0 -0.52169,-3.21183 -0.76051,-4.68211c-0.21266,-1.30924 0.55305,-3.80951 0.55305,-3.80951"></path></g><path stroke-linecap="butt" stroke-width="5" stroke="#6b74a9" fill="#dbdfff" data-paper-data="{&quot;index&quot;:null}" d="M63.30785,233.28014c-0.67439,-1.20287 9.98136,0.67874 7.94853,-2.21366c-4.89541,-6.96538 -21.23969,-20.15795 -22.29962,-25.44971c-1.20154,-5.99871 9.80309,-2.11122 7.69946,-6.96396c-5.4971,-12.68098 -18.92069,-27.06298 -20.45938,-37.16557c-0.9615,-6.31291 8.73335,-1.0306 8.84268,-6.36863c0.24391,-11.90908 12.04677,-20.03139 12.04677,-20.03139c0,0 24.24553,8.67568 28.07859,22.6148c1.27655,4.6422 7.71639,-2.31101 8.69337,2.30289c1.65474,7.81462 -2.17525,26.94888 0.7541,32.85428c1.13498,2.28804 7.28917,-3.27923 8.68963,-0.74414c4.23495,7.66607 8.72106,22.00701 12.56643,30.98954c0.7897,1.8447 6.42544,-2.59509 7.15543,-0.98104c4.73071,10.45974 3.18687,22.19526 3.18687,22.19526c0,0 -47.76721,15.95802 -62.90287,-11.03865z"></path><path stroke-linecap="butt" stroke-width="5" stroke="#6b74a9" fill="#94e7c0" data-paper-data="{&quot;index&quot;:null}" d="M135.50822,177.55619c3.40042,10.56895 5.48039,24.73948 5.48039,40.315c0,32.69264 -8.44864,40.98134 -19.75261,40.98134c-11.30397,0 -21.18266,-8.2887 -21.18266,-40.98134c0,-17.61678 2.66086,-33.43616 6.88365,-44.27983"></path><path stroke-linecap="round" stroke-width="5" stroke="#6b74a9" fill="#94e7c0" data-paper-data="{&quot;index&quot;:null}" d="M135.20729,183.50275l9.76284,0.56907l3.19754,6.1019l-2.59221,9.80179l4.07789,7.62589l-2.72814,7.23737l3.94475,5.31813l-3.29866,4.42426l-9.68944,15.11722"></path><path stroke-linecap="butt" stroke-width="0" stroke="none" fill="#ffffff" d="M332.59144,165.93947z"></path><path stroke-linecap="butt" stroke-width="5" stroke="#6b74a9" fill="#dbdfff" data-paper-data="{&quot;index&quot;:null}" d="M115.98666,115.38672c-4.17737,-7.07387 13.57558,-10.24646 15.81143,-18.86682c7.8785,-30.37563 -19.05464,-39.86689 14.34747,-30.64599c38.94302,10.7505 0.78217,5.56304 -6.48246,30.92015c0,0 -18.4245,27.48621 -23.67644,18.59266z"></path><path stroke-linecap="butt" stroke-width="5" stroke="#6b74a9" fill="#dbdfff" data-paper-data="{&quot;index&quot;:null}" d="M80.41948,67.60198c33.69527,-8.08424 6.45611,0.48932 13.30124,31.11438c1.94259,8.69114 19.57789,12.46322 15.16333,19.39155c-5.55017,8.71056 -20.87177,-10.74462 -23.03311,-19.38395c-6.4016,-25.58861 -44.71626,-21.69667 -5.43145,-31.12196z"></path><path stroke-linecap="round" stroke-width="5" stroke="#6b74a9" fill="#94e7c0" data-paper-data="{&quot;index&quot;:null}" d="M122.09373,258.39781l-9.26463,3.26512l-3.88858,0.61874l0.09422,-6.96495l-6.55475,2.72727l-1.71142,-8.31774l-3.07523,-7.67144l-0.69282,-6.69665l1.93024,-7.3888"></path><path stroke-linecap="round" stroke-width="5" stroke="#6b74a9" fill="#94e7c0" data-paper-data="{&quot;index&quot;:null}" d="M140.69687,229.17772l1.7969,6.66377l-0.69282,6.69665l-3.07522,7.67144l-1.71142,8.31774l-6.55475,-2.72727l0.09422,6.96495l-3.88858,-0.61874l-6.06463,-4.71516"></path><g stroke="#6b74a9"><path stroke-linecap="butt" stroke-width="5" fill="#dbdfff" data-paper-data="{&quot;index&quot;:null}" d="M105.23892,195.97179c0.4713,7.54972 1.04659,17.42915 0.51755,30.36179c-0.50202,12.27196 4.79236,25.78053 -5.03215,28.30699c-15.98468,4.11057 -19.54497,-14.65158 -18.63234,-24.69611c0.91523,-10.07305 2.47862,-22.25391 6.0844,-31.18487c3.53922,-8.76609 16.42014,-13.07826 17.06253,-2.78777z"></path><path stroke-linecap="round" stroke-width="1.5" fill="none" d="M97.14966,253.27123l-1.2986,-10.05343"></path><path stroke-linecap="round" stroke-width="1.5" fill="none" d="M99.45592,241.65524c0,0 1.50911,2.64905 1.71163,4.21697c0.22744,1.7608 0.72429,5.60725 0.72429,5.60725"></path><path stroke-linecap="round" stroke-width="1.5" fill="none" data-paper-data="{&quot;index&quot;:null}" d="M91.48373,252.33475c0,0 -0.46409,-3.85055 -0.67654,-5.61322c-0.18918,-1.56959 0.62234,-4.50835 0.62234,-4.50835"></path></g><path stroke-linecap="round" stroke-width="5" stroke="#6b74a9" fill="#94e7c0" d="M110.66264,229.02412l-14.91843,-8.50406l-1.90985,-4.94261l2.82845,-4.87l-1.39588,-7.72401l3.03315,-7.1971l-1.17619,-10.31153l2.38463,-5.76765l7.35377,0.94386"></path><path stroke-linecap="butt" stroke-width="0" stroke="none" fill="#44b39b" d="M138.41582,209.55862c0,31.08925 -7.0819,35.82222 -15.81784,35.82222c-8.73594,0 -15.81784,-4.73297 -15.81784,-35.82222c0,-31.08925 7.0819,-44.77778 15.81784,-44.77778c8.73594,0 15.81784,13.68854 15.81784,44.77778z"></path><path stroke-linecap="butt" stroke-width="5" stroke="#6b74a9" fill="#dbdfff" d="M76.55191,131.50219c0.4164,-23.40194 17.26093,-38.55339 38.55338,-38.55339c21.29245,0 38.90192,5.21362 39.43967,26.1454c0.97089,37.79149 37.76437,-6.4136 32.87869,52.3203c-3.33432,2.77962 -7.39715,5.86079 -12.43369,8.5541c-12.3037,6.57946 -30.41824,10.84429 -57.91839,2.74397c-36.71295,-10.81401 -40.87276,-31.36611 -40.51966,-51.21037z"></path><path stroke-linecap="butt" stroke-width="2.5" stroke="#6b74a9" fill="#6b74a9" data-paper-data="{&quot;index&quot;:null}" d="M145.0475,123.28168c1.69503,0 3.06914,4.19057 3.06914,9.35988c0,5.16932 -1.3741,9.35987 -3.06914,9.35987c-1.69503,0 -3.06913,-4.19055 -3.06913,-9.35987c0,-5.16932 1.37409,-9.35988 3.06913,-9.35988z"></path><path stroke-linecap="butt" stroke-width="5" stroke="#6b74a9" fill="#6b74a9" d="M175.94348,151.95818c-0.01358,1.37838 -2.94081,4.64119 -4.97052,4.3508c-2.02972,-0.29039 -5.80883,-4.90763 -5.79915,-5.8916c0.01358,-1.37838 2.52297,-0.79683 5.46579,-0.85309c2.94282,-0.05626 5.31745,1.01553 5.30388,2.3939z"></path><path stroke-linecap="round" stroke-width="2.5" stroke="#6b74a9" fill="none" data-paper-data="{&quot;index&quot;:null}" d="M122.08002,137.75408c-0.20873,-8.32401 6.11312,-16.82017 14.70386,-15.46023"></path><path stroke-linecap="round" stroke-width="2.5" stroke="#6b74a9" fill="none" d="M171.73782,166.95252l-0.5,-10.5"></path><path stroke-linecap="round" stroke-width="2.5" stroke="#6b74a9" fill="none" data-paper-data="{&quot;index&quot;:null}" d="M177.29549,163.56852c0,0 -4.11702,3.94703 -5.76802,4.75179c-0.67265,0.32788 -4.98647,-4.3991 -4.98647,-4.3991"></path><path stroke-linecap="round" stroke-width="2.5" stroke="#6b74a9" fill="none" data-paper-data="{&quot;index&quot;:null}" d="M142.44166,122.86051c7.03326,-1.35993 12.20899,7.13622 12.0381,15.46023"></path><path stroke-linecap="butt" stroke-width="2.5" stroke="#6b74a9" fill="#6b74a9" d="M135.70459,132.97489c0,5.16932 -1.3741,9.35987 -3.06913,9.35987c-1.69504,0 -3.06914,-4.19055 -3.06914,-9.35987c0,-5.16931 1.37411,-9.35988 3.06914,-9.35988c1.69504,0 3.06913,4.19056 3.06913,9.35988z"></path><path stroke-linecap="round" stroke-width="2.5" stroke="#6b74a9" fill="#dbdfff" d="M132.08227,92.0082c0,0 9.7011,0.2781 11.61924,0.81764c4.35517,1.22502 0.6135,3.89894 0.6135,3.89894c0,0 15.12393,1.97724 14.96192,4.10725c-0.12261,1.61192 -4.247,2.12784 -4.247,2.12784c0,0 10.99223,4.12599 9.0254,5.8271c-1.58542,1.37123 -7.6701,0.16823 -7.6701,0.16823c0,0 5.62543,3.6999 4.31408,6.16897c-0.79019,1.4878 -7.815,-1.29941 -7.815,-1.29941c0,0 4.11016,4.38296 0.49068,5.99389c-1.94903,0.86747 -9.4421,-3.25579 -9.4421,-3.25579c0,0 1.83797,5.75876 0.25975,7.82217c-2.00021,2.61512 -23.57393,-3.35573 -23.57393,-3.35573c0,0 6.04542,4.67059 2.2211,4.63864c-11.11489,-0.09284 -24.72574,-13.48727 -24.72574,-13.48727"></path><g stroke-linecap="butt" stroke-width="2.5" stroke="#6b74a9"><path fill="#f1adff" d="M127.75705,95.19591c0,-2.70996 9.76402,-4.43388 12.47398,-4.43388c2.70997,0 4.90683,2.19688 4.90683,4.90683c0,2.70996 -2.19687,4.90682 -4.90683,4.90682c-2.70997,0 -12.47398,-2.66982 -12.47398,-5.37978z"></path><path fill="#f1adff" d="M127.53668,95.85574c-1.91623,-1.91623 3.76896,-10.03942 5.68519,-11.95565c1.91623,-1.91623 5.02307,-1.91623 6.9393,0c1.91623,1.91623 1.91623,5.02308 0,6.93929c-1.91623,1.91623 -10.70826,6.93258 -12.62449,5.01635z"></path><path fill="#f1adff" d="M128.16555,95.22714c-2.70997,0 -4.43388,-9.76402 -4.43388,-12.47398c0,-2.70996 2.19687,-4.90683 4.90682,-4.90683c2.70997,0 4.90683,2.19687 4.90683,4.90683c0,2.70996 -2.6698,12.47398 -5.37977,12.47398z"></path><path fill="#f1adff" d="M128.58891,95.44753c-1.91623,1.91623 -10.03942,-3.76898 -11.95566,-5.68519c-1.91623,-1.91623 -1.91623,-5.02307 0,-6.9393c1.91623,-1.91623 5.02308,-1.91623 6.93931,0c1.91623,1.91623 6.93259,10.70828 5.01636,12.62449z"></path><path fill="#f1adff" data-paper-data="{&quot;index&quot;:null}" d="M129.43613,96.40202c0,2.70996 -9.76401,4.43388 -12.47398,4.43388c-2.70997,0 -4.90683,-2.19687 -4.90683,-4.90683c0,-2.70996 2.19687,-4.90684 4.90683,-4.90684c2.70997,0 12.47398,2.66982 12.47398,5.37979z"></path><path fill="#f1adff" data-paper-data="{&quot;index&quot;:null}" d="M129.77479,95.86042c1.91623,1.91623 -3.76898,10.03941 -5.68521,11.95564c-1.91623,1.91623 -5.02307,1.91623 -6.9393,0c-1.91623,-1.91623 -1.91623,-5.02307 0,-6.9393c1.91623,-1.91623 10.70828,-6.93257 12.62451,-5.01635z"></path><path fill="#f1adff" data-paper-data="{&quot;index&quot;:null}" d="M129.14594,96.48904c2.70997,0 4.43388,9.76401 4.43388,12.47397c0,2.70996 -2.19687,4.90684 -4.90683,4.90684c-2.70997,0 -4.90683,-2.19687 -4.90683,-4.90684c0,-2.70996 2.66982,-12.47397 5.37977,-12.47397z"></path><path fill="#f1adff" data-paper-data="{&quot;index&quot;:null}" d="M128.60429,96.1504c1.91623,-1.91623 10.03942,3.76898 11.95565,5.68519c1.91623,1.91623 1.91623,5.02307 0,6.9393c-1.91623,1.91623 -5.02307,1.91623 -6.9393,0c-1.91623,-1.91623 -6.93258,-10.70828 -5.01635,-12.62449z"></path><path fill="#f7ffad" d="M122.50304,96.50398c0,-3.39562 2.7527,-6.1483 6.14831,-6.1483c3.39562,0 6.1483,2.75268 6.1483,6.1483c0,3.39562 -2.75268,6.14831 -6.1483,6.14831c-3.39562,0 -6.14831,-2.7527 -6.14831,-6.14831z"></path></g><g stroke-linecap="butt" stroke-width="2.5" stroke="#6b74a9"><path fill="#f1adff" d="M104.75713,102.39591c0,-2.70996 9.76402,-4.43388 12.47398,-4.43388c2.70997,0 4.90683,2.19688 4.90683,4.90683c0,2.70996 -2.19687,4.90682 -4.90683,4.90682c-2.70997,0 -12.47398,-2.66981 -12.47398,-5.37978z"></path><path fill="#f1adff" d="M104.53669,103.05574c-1.91623,-1.91623 3.76897,-10.03942 5.6852,-11.95565c1.91623,-1.91623 5.02307,-1.91623 6.9393,0c1.91623,1.91623 1.91623,5.02308 0,6.93929c-1.91623,1.91623 -10.70826,6.93258 -12.62449,5.01635z"></path><path fill="#f1adff" d="M105.1656,102.42714c-2.70997,0 -4.43389,-9.76401 -4.43389,-12.47398c0,-2.70996 2.19687,-4.90683 4.90682,-4.90683c2.70997,0 4.90683,2.19687 4.90683,4.90683c0,2.70996 -2.6698,12.47398 -5.37976,12.47398z"></path><path fill="#f1adff" d="M105.58893,102.64753c-1.91623,1.91623 -10.03942,-3.76898 -11.95567,-5.6852c-1.91623,-1.91623 -1.91623,-5.02307 0,-6.9393c1.91623,-1.91623 5.02307,-1.91623 6.9393,0c1.91623,1.91623 6.93259,10.70828 5.01636,12.62449z"></path><path fill="#f1adff" data-paper-data="{&quot;index&quot;:null}" d="M106.43615,103.60202c0,2.70996 -9.76401,4.43388 -12.47398,4.43388c-2.70997,0 -4.90683,-2.19687 -4.90683,-4.90683c0,-2.70996 2.19687,-4.90684 4.90683,-4.90684c2.70997,0 12.47398,2.66982 12.47398,5.37978z"></path><path fill="#f1adff" data-paper-data="{&quot;index&quot;:null}" d="M106.7748,103.06042c1.91623,1.91623 -3.76898,10.03942 -5.68521,11.95565c-1.91623,1.91623 -5.02307,1.91623 -6.9393,0c-1.91623,-1.91623 -1.91623,-5.02307 0,-6.9393c1.91623,-1.91623 10.70828,-6.93257 12.62451,-5.01635z"></path><path fill="#f1adff" data-paper-data="{&quot;index&quot;:null}" d="M106.14594,103.68904c2.70997,0 4.43388,9.76401 4.43388,12.47397c0,2.70996 -2.19686,4.90684 -4.90683,4.90684c-2.70997,0 -4.90683,-2.19687 -4.90683,-4.90684c0,-2.70996 2.66982,-12.47397 5.37976,-12.47397z"></path><path fill="#f1adff" data-paper-data="{&quot;index&quot;:null}" d="M105.6043,103.3504c1.91623,-1.91623 10.03942,3.76898 11.95565,5.68519c1.91623,1.91623 1.91623,5.02307 0,6.9393c-1.91623,1.91623 -5.02307,1.91623 -6.9393,0c-1.91623,-1.91623 -6.93258,-10.70828 -5.01635,-12.62449z"></path><path fill="#f7ffad" d="M99.50308,103.70398c0,-3.39562 2.7527,-6.1483 6.14831,-6.1483c3.39561,0 6.1483,2.75268 6.1483,6.1483c0,3.39562 -2.75269,6.14831 -6.1483,6.14831c-3.39561,0 -6.14831,-2.7527 -6.14831,-6.14831z"></path></g><path stroke-linecap="round" stroke-width="2.5" stroke="#6b74a9" fill="#dbdfff" d="M131.59689,229.34574c-3.23568,2.66305 -9.8842,-5.06937 -9.8842,-5.06937c0,0 -5.26734,6.45612 -8.05515,4.16432c-2.7878,-2.2918 1.11322,-9.87112 1.11322,-9.87112c0,0 -8.12787,-3.63774 -6.93884,-7.67421c1.18903,-4.03647 9.48597,-0.97268 9.48597,-0.97268c0,0 0.42513,-10.28911 4.47285,-10.41344c4.04772,-0.12433 4.25129,10.14547 4.25129,10.14547c0,0 8.95453,-3.74806 10.44516,0.47611c1.49063,4.22417 -7.4211,8.09351 -7.4211,8.09351c0,0 5.76646,8.45836 2.53078,11.12141z"></path><path stroke-linecap="butt" stroke-width="0" stroke="none" fill="#dbdfff" d="M133.45496,132.24067c0,0.67063 -1.63097,1.21429 -3.64286,1.21429c-2.01189,0 -3.64285,-0.54366 -3.64285,-1.21429c0,-0.67063 1.63096,-1.21428 3.64285,-1.21428c2.01189,0 3.64286,0.54366 3.64286,1.21428z"></path><path stroke-linecap="butt" stroke-width="0" stroke="none" fill="#dbdfff" d="M145.66925,131.90734c0,0.67063 -1.63097,1.21429 -3.64286,1.21429c-2.01189,0 -3.64285,-0.54366 -3.64285,-1.21429c0,-0.67063 1.63096,-1.21428 3.64285,-1.21428c2.01189,0 3.64286,0.54365 3.64286,1.21428z"></path><g stroke="#6b74a9" data-paper-data="{&quot;index&quot;:null}"><path stroke-linecap="butt" stroke-width="5" fill="#dbdfff" data-paper-data="{&quot;index&quot;:null}" d="M290.65664,222.75032c1.43147,-8.52618 13.88428,-3.43155 16.72104,4.30446c2.89011,7.88151 3.50226,18.24285 3.63366,26.76756c0.13101,8.50056 -4.85026,23.76945 -20.39939,18.48416c-9.55681,-3.24846 -3.25957,-13.92587 -2.81119,-24.24053c0.47252,-10.86997 1.80567,-19.06035 2.85588,-25.31566z"></path><path stroke-linecap="round" stroke-width="1.5" fill="none" d="M296.33026,263.32362l-2.06452,8.25209"></path><path stroke-linecap="round" stroke-width="1.5" fill="none" d="M289.69687,269.52942c0,0 0.78988,-3.15727 1.15147,-4.60257c0.322,-1.28699 2.02426,-3.32635 2.02426,-3.32635"></path><path stroke-linecap="round" stroke-width="1.5" fill="none" data-paper-data="{&quot;index&quot;:null}" d="M300.7965,262.99565c0,0 0.57881,2.55003 0.26996,3.83997c-0.34685,1.44861 -1.10453,4.61308 -1.10453,4.61308"></path></g><g stroke="#6b74a9"><path stroke-linecap="butt" stroke-width="5" fill="#dbdfff" data-paper-data="{&quot;index&quot;:null}" d="M301.6138,243.97013c0.11989,6.34172 0.23538,14.63907 -0.89405,25.46053c-1.07174,10.26863 3.58865,21.75528 -6.34169,23.56458c-16.15686,2.94374 -18.84106,-12.89124 -17.4627,-21.28034c1.38228,-8.41291 3.5099,-18.57192 7.52647,-25.94335c3.94243,-7.23536 17.00856,-10.44537 17.17197,-1.8014z"></path><path stroke-linecap="round" stroke-width="1.5" fill="none" d="M290.87123,291.73565l-0.82986,-8.46586"></path><path stroke-linecap="round" stroke-width="1.5" fill="none" d="M293.71462,282.07329c0,0 1.38421,2.2673 1.51365,3.58763c0.14535,1.48275 0.46284,4.72179 0.46284,4.72179"></path><path stroke-linecap="round" stroke-width="1.5" fill="none" data-paper-data="{&quot;index&quot;:null}" d="M285.25554,290.7732c0,0 -0.28459,-3.24145 -0.41487,-4.72529c-0.11601,-1.32132 0.83111,-3.75866 0.83111,-3.75866"></path></g><path stroke-linecap="butt" stroke-width="5" stroke="#6b74a9" fill="#dbdfff" data-paper-data="{&quot;index&quot;:null}" d="M247.07799,217.46968c-0.50676,-1.0072 8.12778,0.9201 6.57336,-1.51686c-3.7433,-5.8686 -16.60972,-17.24298 -17.28157,-21.60406c-0.76161,-4.94369 8.0844,-1.36523 6.54398,-5.40597c-4.02533,-10.55908 -14.46259,-22.79795 -15.34921,-31.106c-0.55404,-5.19153 7.17105,-0.52179 7.45594,-4.87782c0.63557,-9.71825 10.5736,-15.91999 10.5736,-15.91999c0,0 19.48557,7.97454 22.10563,19.50028c0.87258,3.83846 6.38732,-1.60487 7.01626,2.1995c1.06524,6.44351 -2.76412,21.9318 -0.58784,26.86259c0.8432,1.91043 6.07385,-2.41136 7.12484,-0.28942c3.17817,6.41672 6.31692,18.29459 9.12865,25.7723c0.57743,1.53566 5.3433,-1.88421 5.88041,-0.53913c3.48074,8.71672 1.78976,18.24557 1.78976,18.24557c0,0 -39.60035,11.28412 -50.97381,-11.32099z"></path><g stroke="#6b74a9"><path stroke-linecap="butt" stroke-width="5" fill="#dbdfff" data-paper-data="{&quot;index&quot;:null}" d="M346.62436,236.27571c1.09102,7.48532 2.47739,17.2839 3.01445,30.21621c0.50961,12.27165 6.89774,25.29868 -2.68552,28.62509c-15.59217,5.4121 -20.68445,-12.9934 -20.60154,-23.07897c0.08315,-10.1142 0.6388,-22.38241 3.49737,-31.57981c2.8058,-9.02762 15.28815,-14.38521 16.77523,-4.18249z"></path><path stroke-linecap="round" stroke-width="1.5" fill="none" d="M343.27806,294.0465l-2.12155,-9.91246"></path><path stroke-linecap="round" stroke-width="1.5" fill="none" d="M344.62055,282.28012c0,0 1.722,2.51587 2.05286,4.0618c0.37158,1.73611 1.18329,5.52863 1.18329,5.52863"></path><path stroke-linecap="round" stroke-width="1.5" fill="none" data-paper-data="{&quot;index&quot;:null}" d="M337.55428,293.57948c0,0 -0.7794,-3.7993 -1.13619,-5.5385c-0.31771,-1.5487 0.24921,-4.54428 0.24921,-4.54428"></path></g><path stroke-linecap="butt" stroke-width="5" stroke="#6b74a9" fill="#94e7c0" data-paper-data="{&quot;index&quot;:null}" d="M365.67218,240.86922c-10.56895,3.40042 -24.73948,5.48039 -40.315,5.48039c-32.69264,0 -40.98134,-8.44864 -40.98134,-19.75261c0,-11.30397 8.2887,-21.18266 40.98134,-21.18266c17.61678,0 33.43616,2.66086 44.27983,6.88365"></path><path stroke-linecap="round" stroke-width="5" stroke="#6b74a9" fill="#94e7c0" data-paper-data="{&quot;index&quot;:null}" d="M369.32562,237.96829l0.41963,13.69446l-10.5887,-3.33162l-6.1019,5.19754l-9.80179,-2.59221l-7.62589,4.07789l-7.23737,-2.72814l-5.31813,3.94475l-4.42426,-3.29866l-15.11722,-9.68944"></path><path stroke-linecap="butt" stroke-width="0" stroke="none" fill="#ffffff" d="M365.57847,192.63693z"></path><path stroke-linecap="butt" stroke-width="5" stroke="#6b74a9" fill="#dbdfff" data-paper-data="{&quot;index&quot;:null}" d="M371.98666,177.38672c-4.17737,-7.07387 13.57558,-10.24646 15.81143,-18.86682c7.8785,-30.37563 -19.05464,-39.86689 14.34747,-30.64599c38.94302,10.7505 0.78217,5.56304 -6.48246,30.92015c0,0 -18.4245,27.48621 -23.67644,18.59266z"></path><path stroke-linecap="butt" stroke-width="5" stroke="#6b74a9" fill="#dbdfff" data-paper-data="{&quot;index&quot;:null}" d="M336.41948,129.60198c33.69527,-8.08424 6.45611,0.48932 13.30124,31.11438c1.94259,8.69114 19.57789,12.46322 15.16333,19.39155c-5.55017,8.71056 -20.87177,-10.74462 -23.03311,-19.38395c-6.4016,-25.58861 -44.71626,-21.69667 -5.43145,-31.12196z"></path><path stroke-linecap="round" stroke-width="5" stroke="#6b74a9" fill="#94e7c0" data-paper-data="{&quot;index&quot;:null}" d="M284.83056,227.45473l-3.26512,-9.26463l-0.61874,-3.88858l6.96495,0.09422l-2.72727,-6.55475l8.31774,-1.71142l7.67144,-3.07523l6.69665,-0.69282l7.3888,1.93024"></path><path stroke-linecap="round" stroke-width="5" stroke="#6b74a9" fill="#94e7c0" data-paper-data="{&quot;index&quot;:null}" d="M314.05065,246.05787l-6.66377,1.7969l-6.69665,-0.69282l-7.67144,-3.07522l-8.31774,-1.71142l2.72727,-6.55475l-6.96495,0.09422l0.61874,-3.88858l4.71516,-6.06463"></path><path stroke-linecap="round" stroke-width="5" stroke="#6b74a9" fill="#94e7c0" d="M311.80425,209.02364l10.90406,-7.91843l4.94261,-1.90985l4.87,2.82845l7.72401,-1.39588l7.1971,3.03315l10.31153,-1.17619l5.76765,2.38463l-0.94386,7.35377"></path><path stroke-linecap="butt" stroke-width="0" stroke="none" fill="#44b39b" d="M333.66975,243.77682c-31.08925,0 -35.82222,-7.0819 -35.82222,-15.81784c0,-8.73594 4.73297,-15.81784 35.82222,-15.81784c31.08925,0 44.77778,7.0819 44.77778,15.81784c0,8.73594 -13.68854,15.81784 -44.77778,15.81784z"></path><path stroke-linecap="butt" stroke-width="5" stroke="#6b74a9" fill="#dbdfff" d="M332.55191,193.50219c0.4164,-23.40194 17.26093,-38.55339 38.55338,-38.55339c21.29245,0 38.90192,5.21362 39.43967,26.1454c0.97089,37.79149 37.76437,-6.4136 32.87869,52.3203c-3.33432,2.77962 -7.39715,5.86079 -12.43369,8.5541c-12.3037,6.57946 -30.41824,10.84429 -57.91839,2.74397c-36.71295,-10.81401 -40.87276,-31.36611 -40.51966,-51.21037z"></path><path stroke-linecap="butt" stroke-width="2.5" stroke="#6b74a9" fill="#6b74a9" data-paper-data="{&quot;index&quot;:null}" d="M401.0475,185.28168c1.69503,0 3.06914,4.19057 3.06914,9.35988c0,5.16932 -1.3741,9.35987 -3.06914,9.35987c-1.69503,0 -3.06913,-4.19055 -3.06913,-9.35987c0,-5.16932 1.37409,-9.35988 3.06913,-9.35988z"></path><path stroke-linecap="butt" stroke-width="5" stroke="#6b74a9" fill="#6b74a9" d="M431.94348,213.95818c-0.01358,1.37838 -2.94081,4.64119 -4.97052,4.3508c-2.02972,-0.29039 -5.80883,-4.90763 -5.79915,-5.8916c0.01358,-1.37838 2.52297,-0.79683 5.46579,-0.85309c2.94282,-0.05626 5.31745,1.01553 5.30388,2.3939z"></path><path stroke-linecap="round" stroke-width="2.5" stroke="#6b74a9" fill="none" data-paper-data="{&quot;index&quot;:null}" d="M378.08002,199.75408c-0.20873,-8.32401 6.11312,-16.82017 14.70386,-15.46024"></path><path stroke-linecap="round" stroke-width="2.5" stroke="#6b74a9" fill="none" d="M427.73782,228.95252l-0.5,-10.5"></path><path stroke-linecap="round" stroke-width="2.5" stroke="#6b74a9" fill="none" data-paper-data="{&quot;index&quot;:null}" d="M433.29549,225.56852c0,0 -4.11701,3.94702 -5.76802,4.75178c-0.67265,0.32788 -4.98648,-4.39909 -4.98648,-4.39909"></path><path stroke-linecap="round" stroke-width="2.5" stroke="#6b74a9" fill="none" data-paper-data="{&quot;index&quot;:null}" d="M398.44166,184.86051c7.03327,-1.35993 12.20899,7.13622 12.0381,15.46023"></path><path stroke-linecap="butt" stroke-width="2.5" stroke="#6b74a9" fill="#6b74a9" d="M391.70459,194.97489c0,5.16932 -1.3741,9.35987 -3.06913,9.35987c-1.69504,0 -3.06914,-4.19055 -3.06914,-9.35987c0,-5.16931 1.37411,-9.35988 3.06914,-9.35988c1.69504,0 3.06913,4.19056 3.06913,9.35988z"></path><path stroke-linecap="round" stroke-width="2.5" stroke="#6b74a9" fill="#dbdfff" d="M388.08227,154.0082c0,0 9.7011,0.27811 11.61924,0.81764c4.35517,1.22502 0.6135,3.89894 0.6135,3.89894c0,0 15.12393,1.97724 14.96192,4.10725c-0.12261,1.61193 -4.247,2.12784 -4.247,2.12784c0,0 10.99223,4.12599 9.0254,5.8271c-1.58542,1.37124 -7.6701,0.16823 -7.6701,0.16823c0,0 5.62543,3.6999 4.31408,6.16897c-0.79019,1.4878 -7.815,-1.29942 -7.815,-1.29942c0,0 4.11016,4.38296 0.49068,5.99389c-1.94903,0.86747 -9.4421,-3.25579 -9.4421,-3.25579c0,0 1.83797,5.75877 0.25975,7.82217c-2.00021,2.61512 -23.57393,-3.35574 -23.57393,-3.35574c0,0 6.04542,4.67059 2.2211,4.63864c-11.11489,-0.09285 -24.72574,-13.48727 -24.72574,-13.48727"></path><g stroke-linecap="butt" stroke-width="2.5" stroke="#6b74a9"><path fill="#f1adff" d="M383.75705,157.19591c0,-2.70996 9.76402,-4.43388 12.47398,-4.43388c2.70997,0 4.90683,2.19688 4.90683,4.90683c0,2.70996 -2.19687,4.90682 -4.90683,4.90682c-2.70997,0 -12.47398,-2.66982 -12.47398,-5.37978z"></path><path fill="#f1adff" d="M383.53668,157.85574c-1.91623,-1.91623 3.76896,-10.03942 5.68519,-11.95565c1.91623,-1.91623 5.02307,-1.91623 6.9393,0c1.91623,1.91623 1.91623,5.02308 0,6.93929c-1.91623,1.91623 -10.70826,6.93258 -12.62449,5.01635z"></path><path fill="#f1adff" d="M384.16555,157.22714c-2.70997,0 -4.43388,-9.76402 -4.43388,-12.47398c0,-2.70996 2.19687,-4.90683 4.90682,-4.90683c2.70997,0 4.90683,2.19687 4.90683,4.90683c0,2.70996 -2.6698,12.47398 -5.37977,12.47398z"></path><path fill="#f1adff" d="M384.58891,157.44753c-1.91623,1.91623 -10.03942,-3.76898 -11.95566,-5.68519c-1.91623,-1.91623 -1.91623,-5.02307 0,-6.9393c1.91623,-1.91623 5.02308,-1.91623 6.93931,0c1.91623,1.91623 6.93259,10.70828 5.01636,12.62449z"></path><path fill="#f1adff" data-paper-data="{&quot;index&quot;:null}" d="M385.43613,158.40202c0,2.70996 -9.76401,4.43388 -12.47398,4.43388c-2.70997,0 -4.90683,-2.19687 -4.90683,-4.90683c0,-2.70996 2.19687,-4.90684 4.90683,-4.90684c2.70997,0 12.47398,2.66982 12.47398,5.37979z"></path><path fill="#f1adff" data-paper-data="{&quot;index&quot;:null}" d="M385.77479,157.86042c1.91623,1.91623 -3.76898,10.03941 -5.68521,11.95564c-1.91623,1.91623 -5.02307,1.91623 -6.9393,0c-1.91623,-1.91623 -1.91623,-5.02307 0,-6.9393c1.91623,-1.91623 10.70828,-6.93257 12.62451,-5.01635z"></path><path fill="#f1adff" data-paper-data="{&quot;index&quot;:null}" d="M385.14594,158.48904c2.70997,0 4.43388,9.76401 4.43388,12.47397c0,2.70996 -2.19687,4.90684 -4.90683,4.90684c-2.70997,0 -4.90683,-2.19687 -4.90683,-4.90684c0,-2.70996 2.66982,-12.47397 5.37977,-12.47397z"></path><path fill="#f1adff" data-paper-data="{&quot;index&quot;:null}" d="M384.60429,158.1504c1.91623,-1.91623 10.03942,3.76898 11.95565,5.68519c1.91623,1.91623 1.91623,5.02307 0,6.9393c-1.91623,1.91623 -5.02307,1.91623 -6.9393,0c-1.91623,-1.91623 -6.93258,-10.70828 -5.01635,-12.62449z"></path><path fill="#f7ffad" d="M378.50304,158.50398c0,-3.39562 2.7527,-6.1483 6.14831,-6.1483c3.39562,0 6.1483,2.75268 6.1483,6.1483c0,3.39562 -2.75268,6.14831 -6.1483,6.14831c-3.39562,0 -6.14831,-2.7527 -6.14831,-6.14831z"></path></g><g stroke-linecap="butt" stroke-width="2.5" stroke="#6b74a9"><path fill="#f1adff" d="M360.75713,164.39591c0,-2.70996 9.76402,-4.43388 12.47398,-4.43388c2.70997,0 4.90683,2.19688 4.90683,4.90683c0,2.70996 -2.19687,4.90682 -4.90683,4.90682c-2.70997,0 -12.47398,-2.66981 -12.47398,-5.37978z"></path><path fill="#f1adff" d="M360.53669,165.05574c-1.91623,-1.91623 3.76897,-10.03942 5.6852,-11.95565c1.91623,-1.91623 5.02307,-1.91623 6.9393,0c1.91623,1.91623 1.91623,5.02308 0,6.93929c-1.91623,1.91623 -10.70826,6.93258 -12.62449,5.01635z"></path><path fill="#f1adff" d="M361.1656,164.42714c-2.70997,0 -4.43389,-9.76401 -4.43389,-12.47398c0,-2.70996 2.19687,-4.90683 4.90682,-4.90683c2.70997,0 4.90683,2.19687 4.90683,4.90683c0,2.70996 -2.6698,12.47398 -5.37976,12.47398z"></path><path fill="#f1adff" d="M361.58893,164.64753c-1.91623,1.91623 -10.03942,-3.76898 -11.95567,-5.6852c-1.91623,-1.91623 -1.91623,-5.02307 0,-6.9393c1.91623,-1.91623 5.02307,-1.91623 6.9393,0c1.91623,1.91623 6.93259,10.70828 5.01636,12.62449z"></path><path fill="#f1adff" data-paper-data="{&quot;index&quot;:null}" d="M362.43615,165.60202c0,2.70996 -9.76401,4.43388 -12.47398,4.43388c-2.70997,0 -4.90683,-2.19687 -4.90683,-4.90683c0,-2.70996 2.19687,-4.90684 4.90683,-4.90684c2.70997,0 12.47398,2.66982 12.47398,5.37978z"></path><path fill="#f1adff" data-paper-data="{&quot;index&quot;:null}" d="M362.7748,165.06042c1.91623,1.91623 -3.76898,10.03942 -5.68521,11.95565c-1.91623,1.91623 -5.02307,1.91623 -6.9393,0c-1.91623,-1.91623 -1.91623,-5.02307 0,-6.9393c1.91623,-1.91623 10.70828,-6.93257 12.62451,-5.01635z"></path><path fill="#f1adff" data-paper-data="{&quot;index&quot;:null}" d="M362.14594,165.68904c2.70997,0 4.43388,9.76401 4.43388,12.47397c0,2.70996 -2.19686,4.90684 -4.90683,4.90684c-2.70997,0 -4.90683,-2.19687 -4.90683,-4.90684c0,-2.70996 2.66982,-12.47397 5.37976,-12.47397z"></path><path fill="#f1adff" data-paper-data="{&quot;index&quot;:null}" d="M361.6043,165.3504c1.91623,-1.91623 10.03942,3.76898 11.95565,5.68519c1.91623,1.91623 1.91623,5.02307 0,6.9393c-1.91623,1.91623 -5.02307,1.91623 -6.9393,0c-1.91623,-1.91623 -6.93258,-10.70828 -5.01635,-12.62449z"></path><path fill="#f7ffad" d="M355.50308,165.70398c0,-3.39562 2.7527,-6.1483 6.14831,-6.1483c3.39561,0 6.1483,2.75268 6.1483,6.1483c0,3.39562 -2.75269,6.14831 -6.1483,6.14831c-3.39561,0 -6.14831,-2.7527 -6.14831,-6.14831z"></path></g><path stroke-linecap="round" stroke-width="2.5" stroke="#6b74a9" fill="#dbdfff" d="M313.88263,236.95789c-2.66305,-3.23568 5.06937,-9.8842 5.06937,-9.8842c0,0 -6.45612,-5.26734 -4.16432,-8.05515c2.2918,-2.7878 9.87112,1.11322 9.87112,1.11322c0,0 3.63774,-8.12787 7.67421,-6.93884c4.03647,1.18903 0.97268,9.48597 0.97268,9.48597c0,0 10.28911,0.42513 10.41344,4.47285c0.12433,4.04772 -10.14547,4.25129 -10.14547,4.25129c0,0 3.74806,8.95453 -0.47611,10.44516c-4.22417,1.49063 -8.09351,-7.4211 -8.09351,-7.4211c0,0 -8.45836,5.76646 -11.12141,2.53078z"></path><path stroke-linecap="butt" stroke-width="0" stroke="none" fill="#dbdfff" d="M389.45496,194.24067c0,0.67063 -1.63097,1.21428 -3.64286,1.21428c-2.01189,0 -3.64285,-0.54366 -3.64285,-1.21428c0,-0.67063 1.63096,-1.21428 3.64285,-1.21428c2.01189,0 3.64286,0.54366 3.64286,1.21428z"></path><path stroke-linecap="butt" stroke-width="0" stroke="none" fill="#dbdfff" d="M401.66925,193.90734c0,0.67063 -1.63097,1.21428 -3.64286,1.21428c-2.01189,0 -3.64285,-0.54366 -3.64285,-1.21428c0,-0.67063 1.63096,-1.21429 3.64285,-1.21429c2.01189,0 3.64286,0.54366 3.64286,1.21429z"></path></g></g></svg>
